<svg width="251" height="288" viewBox="0 0 251 288" fill="none" xmlns="http://www.w3.org/2000/svg">
<path fill-rule="evenodd" clip-rule="evenodd" d="M144 288C64.471 288 0 223.529 0 144C0 64.471 64.471 0 144 0C223.529 0 288 64.471 288 144C288 223.529 223.529 288 144 288Z" fill="url(#paint0_linear)"/>
<path fill-rule="evenodd" clip-rule="evenodd" d="M43 288C19.2518 288 0 268.748 0 245C0 221.252 19.2518 202 43 202C66.7482 202 86 221.252 86 245C86 268.748 66.7482 288 43 288Z" fill="url(#paint1_linear)"/>
<defs>
<linearGradient id="paint0_linear" x1="125.607" y1="356.083" x2="-69.6242" y2="154.674" gradientUnits="userSpaceOnUse">
<stop stop-color="#CD10FF"/>
<stop offset="1" stop-color="#9F06FF"/>
</linearGradient>
<linearGradient id="paint1_linear" x1="41.4912" y1="306.528" x2="-2.31792" y2="245.588" gradientUnits="userSpaceOnUse">
<stop stop-color="#FFD7A9"/>
<stop offset="1" stop-color="#FFAE70"/>
</linearGradient>
</defs>
</svg>
